<svg width="140" height="140" viewBox="0 0 140 140" fill="none" xmlns="http://www.w3.org/2000/svg">
<rect x="48.1855" y="70.0059" width="27.6694" height="27.6224" transform="rotate(-45 48.1855 70.0059)" fill="#2684FF"/>
<path d="M129.991 66.3078L73.2354 9.55263L67.7348 4.05615L5.48328 66.3078C3.44828 68.3484 3.44828 71.6517 5.48328 73.6881L44.5154 112.719L67.7348 135.944L129.991 73.6881C132.027 71.6517 132.027 68.3484 129.991 66.3078ZM67.7348 89.494L48.2403 70.0008L67.7348 50.5005L87.2336 70.0008L67.7348 89.494Z" fill="#2684FF"/>
<path d="M67.7352 50.5004C54.9722 37.7319 54.907 17.052 67.5993 4.2085L24.9297 46.8616L48.1547 70.0866L67.7352 50.5004Z" fill="url(#paint0_linear_2237_70851)"/>
<path d="M87.2873 69.9453L67.7344 89.494C73.8962 95.6502 77.3618 104.006 77.3618 112.719C77.3618 121.431 73.8962 129.782 67.7344 135.944L110.507 93.1703L87.2873 69.9453Z" fill="url(#paint1_linear_2237_70851)"/>
<path d="M41.4609 55.4072V85H52.8633C61.7432 85 66.9727 79.4834 66.9727 70.0908C66.9727 60.6982 61.7432 55.4072 52.8633 55.4072H41.4609ZM47.6543 60.5137H52.125C57.5801 60.5137 60.6562 63.918 60.6562 70.1113C60.6562 76.5098 57.6621 79.873 52.125 79.873H47.6543V60.5137Z" fill="white"/>
<path d="M84.0352 85.5127C91.2949 85.5127 96.3604 81.3291 97.0576 74.7256H91.0283C90.3721 78.2324 87.7266 80.3857 84.0557 80.3857C79.3184 80.3857 76.3447 76.4893 76.3447 70.1729C76.3447 63.9385 79.3594 60.0215 84.0352 60.0215C87.6445 60.0215 90.4336 62.4004 91.0078 66.0303H97.0371C96.5654 59.4062 91.1514 54.8945 84.0352 54.8945C75.4629 54.8945 70.0283 60.6572 70.0283 70.1934C70.0283 79.75 75.4219 85.5127 84.0352 85.5127Z" fill="white"/>
<defs>
<linearGradient id="paint0_linear_2237_70851" x1="59.3554" y1="35.6786" x2="37.0282" y2="58.0002" gradientUnits="userSpaceOnUse">
<stop stop-color="#0052CC"/>
<stop offset="1" stop-color="#2684FF"/>
</linearGradient>
<linearGradient id="paint1_linear_2237_70851" x1="76.3553" y1="104.104" x2="98.6378" y2="81.8216" gradientUnits="userSpaceOnUse">
<stop stop-color="#0052CC"/>
<stop offset="1" stop-color="#2684FF"/>
</linearGradient>
</defs>
</svg>
